<svg width="48" height="48" viewBox="0 0 48 48" fill="none" xmlns="http://www.w3.org/2000/svg">
<g filter="url(#filter0_d)">
<rect x="0.5" y="0.5" width="47" height="47" rx="23.5" stroke="#666666"/>
</g>
<path d="M25.02 14C26.82 14 27.2 14.02 28.12 14.06C29.18 14.11 29.91 14.28 30.54 14.53C31.2 14.78 31.76 15.13 32.31 15.68C32.87 16.23 33.21 16.79 33.47 17.45C33.72 18.08 33.88 18.81 33.93 19.88C33.98 20.83 33.99 21.2 33.99 23.2V24.8C33.99 26.8 33.98 27.17 33.93 28.12C33.9143 28.9468 33.7588 29.7651 33.47 30.54C33.21 31.2 32.87 31.76 32.32 32.31C31.76 32.87 31.2 33.21 30.54 33.47C29.91 33.72 29.18 33.88 28.12 33.93C27.17 33.98 26.79 33.99 24.79 33.99H23.2C21.2 33.99 20.83 33.98 19.87 33.93C19.0432 33.9141 18.225 33.7586 17.45 33.47C16.7836 33.2195 16.1797 32.8271 15.68 32.32C15.1678 31.8186 14.7719 31.211 14.52 30.54C14.2317 29.765 14.0761 28.9468 14.06 28.12C14.011 27.0874 13.991 26.0537 14 25.02V22.97C14 21.17 14.02 20.79 14.06 19.87C14.11 18.81 14.28 18.08 14.52 17.45C14.78 16.79 15.12 16.23 15.68 15.68C16.1752 15.1674 16.7805 14.7742 17.45 14.53C18.2245 14.2382 19.0427 14.0793 19.87 14.06C20.79 14.02 21.17 14 22.97 14H25.02ZM25.04 15.8H22.95C21.22 15.8 20.85 15.82 19.95 15.86C18.98 15.9 18.45 16.06 18.1 16.2C17.63 16.38 17.3 16.6 16.95 16.95C16.6 17.3 16.38 17.63 16.2 18.1C16.07 18.45 15.9 18.98 15.86 19.96C15.82 20.86 15.8 21.22 15.8 22.96V25.04C15.8 26.78 15.82 27.14 15.86 28.04C15.9 29.01 16.06 29.54 16.2 29.89C16.38 30.36 16.6 30.69 16.95 31.04C17.3 31.39 17.63 31.61 18.1 31.79C18.45 31.93 18.98 32.09 19.96 32.13C20.93 32.18 21.28 32.19 23.44 32.19H24.55C26.72 32.19 27.06 32.18 28.04 32.13C29.01 32.09 29.54 31.93 29.89 31.79C30.36 31.61 30.69 31.39 31.04 31.04C31.39 30.69 31.61 30.36 31.79 29.89C31.93 29.54 32.09 29.01 32.13 28.04C32.18 27.06 32.19 26.72 32.19 24.55V23.45C32.19 21.28 32.18 20.93 32.13 19.95C32.09 18.98 31.93 18.45 31.79 18.1C31.6291 17.6654 31.3728 17.2725 31.04 16.95C30.7178 16.6169 30.3248 16.3606 29.89 16.2C29.2969 15.9832 28.6715 15.8682 28.04 15.86C27.0408 15.8123 26.0404 15.7923 25.04 15.8ZM24 18.86C25.3619 18.86 26.668 19.401 27.631 20.364C28.594 21.327 29.135 22.6331 29.135 23.995C29.135 25.3569 28.594 26.663 27.631 27.626C26.668 28.589 25.3619 29.13 24 29.13C22.6381 29.13 21.332 28.589 20.369 27.626C19.406 26.663 18.865 25.3569 18.865 23.995C18.865 22.6331 19.406 21.327 20.369 20.364C21.332 19.401 22.6381 18.86 24 18.86ZM24 20.66C23.1155 20.66 22.2673 21.0114 21.6418 21.6368C21.0164 22.2622 20.665 23.1105 20.665 23.995C20.665 24.8795 21.0164 25.7278 21.6418 26.3532C22.2673 26.9786 23.1155 27.33 24 27.33C24.8845 27.33 25.7328 26.9786 26.3582 26.3532C26.9837 25.7278 27.335 24.8795 27.335 23.995C27.335 23.1105 26.9837 22.2622 26.3582 21.6368C25.7328 21.0114 24.8845 20.66 24 20.66ZM29.33 17.46C29.6483 17.46 29.9535 17.5864 30.1786 17.8115C30.4036 18.0365 30.53 18.3417 30.53 18.66C30.53 18.9783 30.4036 19.2835 30.1786 19.5085C29.9535 19.7336 29.6483 19.86 29.33 19.86C29.0118 19.86 28.7065 19.7336 28.4815 19.5085C28.2565 19.2835 28.13 18.9783 28.13 18.66C28.13 18.3417 28.2565 18.0365 28.4815 17.8115C28.7065 17.5864 29.0118 17.46 29.33 17.46Z" fill="white"/>
<defs>
<filter id="filter0_d" x="0" y="0" width="48" height="48" filterUnits="userSpaceOnUse" color-interpolation-filters="sRGB">
<feFlood flood-opacity="0" result="BackgroundImageFix"/>
<feColorMatrix in="SourceAlpha" type="matrix" values="0 0 0 0 0 0 0 0 0 0 0 0 0 0 0 0 0 0 127 0" result="hardAlpha"/>
<feOffset/>
<feColorMatrix type="matrix" values="0 0 0 0 0.4 0 0 0 0 0.4 0 0 0 0 0.4 0 0 0 1 0"/>
<feBlend mode="normal" in2="BackgroundImageFix" result="effect1_dropShadow"/>
<feBlend mode="normal" in="SourceGraphic" in2="effect1_dropShadow" result="shape"/>
</filter>
</defs>
</svg>
