<svg width="48" height="48" viewBox="0 0 48 48" fill="none" xmlns="http://www.w3.org/2000/svg">
<g filter="url(#filter0_d)">
<rect x="0.5" y="0.5" width="47" height="47" rx="23.5" stroke="#666666"/>
</g>
<path d="M24 14C21.6755 14.0082 19.4264 14.826 17.6395 16.3128C15.8526 17.7995 14.6395 19.8623 14.2087 22.1466C13.7778 24.4309 14.1563 26.7939 15.2789 28.8293C16.4015 30.8648 18.1982 32.4456 20.36 33.3C20.26 32.51 20.19 31.3 20.39 30.43L21.56 25.46C21.56 25.46 21.26 24.86 21.26 23.98C21.26 22.59 22.07 21.56 23.08 21.56C23.93 21.56 24.35 22.2 24.35 22.96C24.35 23.82 23.8 25.1 23.51 26.29C23.27 27.29 24.01 28.1 25 28.1C26.78 28.1 28.14 26.23 28.14 23.53C28.14 21.13 26.42 19.47 23.96 19.47C23.3756 19.4443 22.792 19.5373 22.2446 19.7434C21.6971 19.9495 21.1971 20.2644 20.7746 20.669C20.3522 21.0737 20.0162 21.5598 19.7868 22.0979C19.5574 22.636 19.4394 23.215 19.44 23.8C19.44 24.66 19.77 25.58 20.18 26.08C20.26 26.18 20.27 26.27 20.24 26.37L19.96 27.5C19.92 27.68 19.81 27.73 19.63 27.64C18.37 27.05 17.59 25.24 17.59 23.76C17.59 20.61 19.89 17.72 24.21 17.72C27.67 17.72 30.38 20.18 30.38 23.49C30.38 26.94 28.2 29.71 25.18 29.71C24.18 29.71 23.22 29.18 22.9 28.56L22.27 30.93C21.9748 31.8577 21.5579 32.7421 21.03 33.56C22.4038 33.9816 23.8524 34.1021 25.277 33.9133C26.7016 33.7245 28.0687 33.2309 29.2854 32.4661C30.502 31.7014 31.5395 30.6833 32.3272 29.4814C33.115 28.2795 33.6344 26.9219 33.8501 25.5011C34.0658 24.0804 33.9728 22.6298 33.5774 21.2482C33.1819 19.8666 32.4934 18.5865 31.5586 17.4951C30.6238 16.4036 29.4648 15.5264 28.1604 14.9233C26.8561 14.3202 25.437 14.0053 24 14Z" fill="white"/>
<defs>
<filter id="filter0_d" x="0" y="0" width="48" height="48" filterUnits="userSpaceOnUse" color-interpolation-filters="sRGB">
<feFlood flood-opacity="0" result="BackgroundImageFix"/>
<feColorMatrix in="SourceAlpha" type="matrix" values="0 0 0 0 0 0 0 0 0 0 0 0 0 0 0 0 0 0 127 0" result="hardAlpha"/>
<feOffset/>
<feColorMatrix type="matrix" values="0 0 0 0 0.4 0 0 0 0 0.4 0 0 0 0 0.4 0 0 0 1 0"/>
<feBlend mode="normal" in2="BackgroundImageFix" result="effect1_dropShadow"/>
<feBlend mode="normal" in="SourceGraphic" in2="effect1_dropShadow" result="shape"/>
</filter>
</defs>
</svg>
