<svg width="48" height="48" viewBox="0 0 48 48" fill="none" xmlns="http://www.w3.org/2000/svg">
<g filter="url(#filter0_d)">
<rect x="0.5" y="0.5" width="47" height="47" rx="23.5" stroke="#666666"/>
</g>
<path d="M34 17.88C33.25 18.25 32.5 18.38 31.62 18.5C32.5 18 33.12 17.25 33.37 16.25C32.5606 16.7313 31.6743 17.0696 30.75 17.25C29.9485 16.4623 28.8737 16.0145 27.75 16C25.62 16 23.75 17.88 23.75 20.13C23.75 20.5 23.75 20.75 23.88 21C22.2422 20.9382 20.6364 20.5271 19.1705 19.7941C17.7045 19.0611 16.4121 18.0232 15.38 16.75C15.0081 17.3956 14.8342 18.1363 14.88 18.88C14.8916 19.552 15.0683 20.2108 15.3943 20.7984C15.7204 21.3861 16.186 21.8846 16.75 22.25C16.12 22.25 15.5 22 14.87 21.75C14.87 23.75 16.25 25.38 18.12 25.75C17.75 25.88 17.37 25.88 17 25.88C16.75 25.88 16.5 25.88 16.25 25.75C16.75 27.38 18.25 28.63 20.13 28.63C18.6778 29.7963 16.8622 30.4156 15 30.38H14C15.875 31.5591 18.0355 32.2056 20.25 32.25C27.75 32.25 31.88 26 31.88 20.62V20.12C32.7387 19.5335 33.4617 18.7697 34 17.88Z" fill="white"/>
<defs>
<filter id="filter0_d" x="0" y="0" width="48" height="48" filterUnits="userSpaceOnUse" color-interpolation-filters="sRGB">
<feFlood flood-opacity="0" result="BackgroundImageFix"/>
<feColorMatrix in="SourceAlpha" type="matrix" values="0 0 0 0 0 0 0 0 0 0 0 0 0 0 0 0 0 0 127 0" result="hardAlpha"/>
<feOffset/>
<feColorMatrix type="matrix" values="0 0 0 0 0.4 0 0 0 0 0.4 0 0 0 0 0.4 0 0 0 1 0"/>
<feBlend mode="normal" in2="BackgroundImageFix" result="effect1_dropShadow"/>
<feBlend mode="normal" in="SourceGraphic" in2="effect1_dropShadow" result="shape"/>
</filter>
</defs>
</svg>
