<svg width="17" height="17" viewBox="0 0 17 17" fill="none" xmlns="http://www.w3.org/2000/svg">
<path d="M8.50973 17C10.1905 16.9981 11.833 16.4979 13.2295 15.5627C14.6261 14.6275 15.714 13.2992 16.3559 11.7458C16.9977 10.1924 17.1646 8.48366 16.8354 6.83543C16.5063 5.18721 15.6959 3.67354 14.5066 2.48581C13.3174 1.29807 11.8027 0.489574 10.1541 0.162498C8.50545 -0.164578 6.79685 0.00446612 5.24427 0.648246C3.69168 1.29202 2.36481 2.38166 1.43136 3.77939C0.497914 5.17712 -0.000189845 6.82019 7.43009e-07 8.50096C0.000639607 9.61779 0.221261 10.7236 0.649271 11.7551C1.07728 12.7867 1.7043 13.7238 2.49451 14.5131C3.28473 15.3023 4.22266 15.9281 5.25476 16.3548C6.28686 16.7815 7.3929 17.0008 8.50973 17ZM8.19347 5.28391L12.8799 10.2165L3.50703 10.2165L8.19347 5.28391Z" fill="#030303"/>
</svg>
